<svg width="24" height="24" viewBox="0 0 24 24" fill="none" xmlns="http://www.w3.org/2000/svg">
<mask id="mask0_107_3" style="mask-type:luminance" maskUnits="userSpaceOnUse" x="0" y="0" width="24" height="24">
<path d="M0 0H24V24H0V0Z" fill="white"/>
</mask>
<g mask="url(#mask0_107_3)">
<path d="M12 22.992C18.07 22.992 22.993 18.07 22.993 11.998C22.993 5.928 18.071 1.005 11.999 1.005C5.928 1.005 1.006 5.927 1.006 11.998C1.006 18.069 5.929 22.992 12 22.992Z" fill="#66E1FF"/>
<path d="M3.874 13.925C3.872 5.89701 12.196 0.57501 19.482 3.94501C13.279 -1.81399 3.17 1.30201 1.286 9.55301C0.724955 12.0095 1.02475 14.5841 2.13519 16.846C3.24564 19.1078 5.09934 20.9196 7.386 21.978C6.27716 20.9501 5.39279 19.704 4.78843 18.318C4.18406 16.932 3.87273 15.436 3.874 13.924" fill="#C2F3FF"/>
<path d="M12.388 5.62701C12.2423 5.95441 12.1808 6.31303 12.209 6.67026C12.2372 7.02749 12.3543 7.37201 12.5495 7.67248C12.7448 7.97296 13.012 8.21987 13.327 8.39077C13.642 8.56166 13.9947 8.65112 14.353 8.65101H14.767C15.2398 8.65068 15.7054 8.76717 16.1224 8.99012C16.5393 9.21308 16.8947 9.5356 17.157 9.92901L19.277 13.111C19.5395 13.5041 19.895 13.8262 20.312 14.0488C20.7289 14.2714 21.1944 14.3876 21.667 14.387H22.738C23.538 10.777 22.473 7.00701 19.902 4.35001H14.357C13.9404 4.34919 13.5325 4.46945 13.1829 4.69616C12.8333 4.92287 12.5572 5.24626 12.388 5.62701ZM8.89999 17.397L10.203 15.932C10.6889 15.3849 10.9476 14.6729 10.926 13.9415C10.9044 13.2101 10.6043 12.5145 10.087 11.997L9.01599 10.926C8.47793 10.3877 7.74808 10.0852 6.98699 10.085H1.17199C0.725988 12.6197 1.18237 15.2306 2.46179 17.4637C3.74122 19.6968 5.76277 21.4109 8.17499 22.308V19.303C8.17499 18.6 8.43299 17.922 8.89999 17.397Z" fill="#78EB7B"/>
<path d="M3.873 13.925C3.87235 12.6141 4.10603 11.3137 4.563 10.085H1.172C0.751677 12.4751 1.1331 14.9372 2.25692 17.088C3.38074 19.2389 5.18395 20.9581 7.386 21.978C6.27662 20.9506 5.39182 19.7048 4.78725 18.3189C4.18267 16.933 3.8714 15.437 3.873 13.925Z" fill="#C9F7CA"/>
<path d="M9.132 22.614C0.961996 20.406 -1.753 10.181 4.244 4.21099C10.242 -1.76001 20.454 0.999994 22.626 9.17999C22.746 9.62866 22.8363 10.0837 22.897 10.545" stroke="#191919" stroke-linecap="round" stroke-linejoin="round"/>
<path d="M10.203 15.932L8.89999 17.397C8.43374 17.9221 8.17615 18.5998 8.17599 19.302V22.308M1.17099 10.086H6.98699C7.74799 10.086 8.47699 10.388 9.01599 10.926L10.576 12.491M19.896 4.35001H14.352C12.696 4.35001 11.662 6.14301 12.489 7.57701C12.6778 7.904 12.9494 8.17551 13.2764 8.36422C13.6034 8.55293 13.9744 8.65219 14.352 8.65201H14.765C15.582 8.65201 16.36 9.00001 16.905 9.60801" stroke="#191919" stroke-linecap="round" stroke-linejoin="round"/>
<path d="M17.257 21.094C20.201 21.094 22.041 17.908 20.569 15.358C20.2335 14.7766 19.7508 14.2938 19.1693 13.9583C18.5879 13.6228 17.9283 13.4465 17.257 13.447C14.314 13.447 12.474 16.633 13.946 19.182C14.2812 19.7635 14.7638 20.2464 15.3451 20.5821C15.9263 20.9177 16.5858 21.0943 17.257 21.094Z" fill="#EEEEEE"/>
<path d="M14.867 18.212H11.521V21.558" stroke="#191919" stroke-linecap="round" stroke-linejoin="round"/>
<path d="M22.435 19.39C21.112 23.272 16.084 24.265 13.385 21.178C12.6582 20.3468 12.2074 19.3104 12.095 18.212M19.648 16.3H22.993V12.954" stroke="#191919" stroke-linecap="round" stroke-linejoin="round"/>
<path d="M12.079 15.12C13.406 11.24 18.436 10.251 21.133 13.34C21.8572 14.1701 22.3065 15.2041 22.419 16.3" stroke="#191919" stroke-linecap="round" stroke-linejoin="round"/>
</g>
</svg>
